# xmcd
#
# Track frame offsets:
#	150
#	14116
#	27091
#	43066
#	58516
#	71191
#	84991
#	97816
#	112591
#	129241
#	143491
#	156841
#	169516
#	182866
#	195991
#
# Disc length: 2794 seconds
#
# Revision: 1
# Processed by: cddbd v1.5.1PL0 Copyright (c) Steve Scherf et al.
# Submitted via: CDex 1.50Beta5
#
DISCID=b70ae80f
DTITLE=名人 - 日本の民謡6
DYEAR=1900
DGENRE=Other
TTITLE0=相馬盆唄
TTITLE1=宮城長持唄
TTITLE2=津軽山唄
TTITLE3=南部牛追い唄
TTITLE4=八丈太鼓囃子
TTITLE5=北海ナット節
TTITLE6=本庄追分
TTITLE7=弥三郎節
TTITLE8=秋田甚句
TTITLE9=祖谷の粉ひき唄
TTITLE10=行徳音頭
TTITLE11=庄内おばこ
TTITLE12=秋の山唄
TTITLE13=北海大漁節
TTITLE14=津軽おはら節
EXTD=
EXTT0=
EXTT1=
EXTT2=
EXTT3=
EXTT4=
EXTT5=
EXTT6=
EXTT7=
EXTT8=
EXTT9=
EXTT10=
EXTT11=
EXTT12=
EXTT13=
EXTT14=
PLAYORDER=
